<svg xmlns="http://www.w3.org/2000/svg" width="440" height="150" viewBox="0 0 440 150" role="img" aria-label="Study Monk primary lockup">
<g transform="translate(0 22) scale(1.0)">
<path d="M16 63 C16 25, 80 25, 80 63" fill="none" stroke="#1F4E5F" stroke-width="9" stroke-linecap="round"/>
<circle cx="48" cy="51" r="11.5" fill="#E8A33D"/>
<path d="M10 63 L46 70 L46 88 L10 81 Z" fill="#1F4E5F"/>
<path d="M86 63 L50 70 L50 88 L86 81 Z" fill="#1F4E5F"/>
</g>
<g fill="#16323A" transform="translate(118 94)"><path transform="translate(0.00 0) scale(0.04200 -0.04200)" d="M58 192H180Q184 147 215.5 118.0Q247 89 304 89Q363 89 396.0 117.5Q429 146 429 191Q429 226 408.5 248.0Q388 270 357.5 282.0Q327 294 273 308Q205 326 162.5 344.5Q120 363 90.0 402.0Q60 441 60 506Q60 566 90.0 611.0Q120 656 174.0 680.0Q228 704 299 704Q400 704 464.5 653.5Q529 603 536 515H410Q407 553 374.0 580.0Q341 607 287 607Q238 607 207.0 582.0Q176 557 176 510Q176 478 195.5 457.5Q215 437 245.0 425.0Q275 413 327 399Q396 380 439.5 361.0Q483 342 513.5 302.5Q544 263 544 197Q544 144 515.5 97.0Q487 50 432.5 21.5Q378 -7 304 -7Q234 -7 178.0 17.5Q122 42 90.0 87.0Q58 132 58 192Z"/>
<path transform="translate(24.87 0) scale(0.04200 -0.04200)" d="M208 458V153Q208 122 222.5 108.5Q237 95 272 95H342V0H252Q175 0 134.0 36.0Q93 72 93 153V458H28V551H93V688H208V551H342V458Z"/>
<path transform="translate(39.99 0) scale(0.04200 -0.04200)" d="M574 551V0H460V65Q433 31 389.5 11.5Q346 -8 297 -8Q232 -8 180.5 19.0Q129 46 99.5 99.0Q70 152 70 227V551H183V244Q183 170 220.0 130.5Q257 91 321 91Q385 91 422.5 130.5Q460 170 460 244V551Z"/>
<path transform="translate(66.75 0) scale(0.04200 -0.04200)" d="M298 560Q352 560 404.5 536.5Q457 513 488 474V740H603V0H488V83Q460 43 410.5 17.0Q361 -9 297 -9Q225 -9 165.5 27.5Q106 64 71.5 129.5Q37 195 37 278Q37 361 71.5 425.0Q106 489 165.5 524.5Q225 560 298 560ZM321 461Q277 461 239.0 439.5Q201 418 177.5 376.5Q154 335 154 278Q154 221 177.5 178.0Q201 135 239.5 112.5Q278 90 321 90Q365 90 403.0 112.0Q441 134 464.5 176.5Q488 219 488 276Q488 333 464.5 375.0Q441 417 403.0 439.0Q365 461 321 461Z"/>
<path transform="translate(94.73 0) scale(0.04200 -0.04200)" d="M571 551 233 -259H115L227 9L10 551H137L292 131L453 551Z"/></g>
<g fill="#1F4E5F" transform="translate(246 94)"><path transform="translate(0.00 0) scale(0.04200 -0.04200)" d="M807 695V0H693V476L481 0H402L189 476V0H75V695H198L442 150L685 695Z"/>
<path transform="translate(36.54 0) scale(0.04200 -0.04200)" d="M38 276Q38 360 75.0 425.0Q112 490 176.0 525.0Q240 560 319 560Q398 560 462.0 525.0Q526 490 563.0 425.0Q600 360 600 276Q600 192 562.0 127.0Q524 62 458.5 26.5Q393 -9 314 -9Q236 -9 173.0 26.5Q110 62 74.0 126.5Q38 191 38 276ZM483 276Q483 336 460.0 377.5Q437 419 399.0 440.0Q361 461 317 461Q273 461 235.5 440.0Q198 419 176.0 377.5Q154 336 154 276Q154 187 199.5 138.5Q245 90 314 90Q358 90 396.5 111.0Q435 132 459.0 174.0Q483 216 483 276Z"/>
<path transform="translate(62.84 0) scale(0.04200 -0.04200)" d="M579 325V0H466V308Q466 382 429.0 421.5Q392 461 328 461Q264 461 226.5 421.5Q189 382 189 308V0H75V551H189V488Q217 522 260.5 541.0Q304 560 353 560Q418 560 469.5 533.0Q521 506 550.0 453.0Q579 400 579 325Z"/>
<path transform="translate(89.60 0) scale(0.04200 -0.04200)" d="M293 275 547 0H393L189 237V0H75V740H189V310L389 551H547Z"/></g>
<g fill="#6B7F84" transform="translate(120 120)"><path transform="translate(0.00 0) scale(0.01300 -0.01300)" d="M189 740V0H75V740Z"/>
<path transform="translate(6.43 0) scale(0.01300 -0.01300)" d="M576 233H155Q160 167 204.0 127.0Q248 87 312 87Q404 87 442 164H565Q540 88 474.5 39.5Q409 -9 312 -9Q233 -9 170.5 26.5Q108 62 72.5 126.5Q37 191 37 276Q37 361 71.5 425.5Q106 490 168.5 525.0Q231 560 312 560Q390 560 451.0 526.0Q512 492 546.0 430.5Q580 369 580 289Q580 258 576 233ZM461 325Q460 388 416.0 426.0Q372 464 307 464Q248 464 206.0 426.5Q164 389 156 325Z"/>
<path transform="translate(17.45 0) scale(0.01300 -0.01300)" d="M297 560Q362 560 410.5 534.5Q459 509 488 471V551H603V0H488V82Q459 43 409.0 17.0Q359 -9 295 -9Q224 -9 165.0 27.5Q106 64 71.5 129.5Q37 195 37 278Q37 361 71.5 425.0Q106 489 165.5 524.5Q225 560 297 560ZM321 461Q277 461 239.0 439.5Q201 418 177.5 376.5Q154 335 154 278Q154 221 177.5 178.0Q201 135 239.5 112.5Q278 90 321 90Q365 90 403.0 112.0Q441 134 464.5 176.5Q488 219 488 276Q488 333 464.5 375.0Q441 417 403.0 439.0Q365 461 321 461Z"/>
<path transform="translate(29.27 0) scale(0.01300 -0.01300)" d="M354 560V442H325Q258 442 223.5 408.0Q189 374 189 290V0H75V551H189V471Q214 513 255.5 536.5Q297 560 354 560Z"/>
<path transform="translate(37.26 0) scale(0.01300 -0.01300)" d="M579 325V0H466V308Q466 382 429.0 421.5Q392 461 328 461Q264 461 226.5 421.5Q189 382 189 308V0H75V551H189V488Q217 522 260.5 541.0Q304 560 353 560Q418 560 469.5 533.0Q521 506 550.0 453.0Q579 400 579 325Z"/>
<path transform="translate(55.08 0) scale(0.01300 -0.01300)" d="M815 551 644 0H524L413 407L302 0H182L10 551H126L241 108L358 551H477L589 110L703 551Z"/>
<path transform="translate(68.80 0) scale(0.01300 -0.01300)" d="M60 697Q60 728 81.0 749.0Q102 770 133 770Q163 770 184.0 749.0Q205 728 205 697Q205 666 184.0 645.0Q163 624 133 624Q102 624 81.0 645.0Q60 666 60 697ZM189 551V0H75V551Z"/>
<path transform="translate(75.23 0) scale(0.01300 -0.01300)" d="M208 458V153Q208 122 222.5 108.5Q237 95 272 95H342V0H252Q175 0 134.0 36.0Q93 72 93 153V458H28V551H93V688H208V551H342V458Z"/>
<path transform="translate(83.07 0) scale(0.01300 -0.01300)" d="M579 325V0H466V308Q466 382 429.0 421.5Q392 461 328 461Q264 461 226.5 421.5Q189 382 189 308V0H75V740H189V487Q218 522 262.5 541.0Q307 560 360 560Q423 560 472.5 533.0Q522 506 550.5 453.0Q579 400 579 325Z"/>
<path transform="translate(100.89 0) scale(0.01300 -0.01300)" d="M306 458H204V0H89V458H24V551H89V590Q89 685 139.5 728.5Q190 772 298 772V677Q246 677 225.0 657.5Q204 638 204 590V551H306Z"/>
<path transform="translate(108.20 0) scale(0.01300 -0.01300)" d="M38 276Q38 360 75.0 425.0Q112 490 176.0 525.0Q240 560 319 560Q398 560 462.0 525.0Q526 490 563.0 425.0Q600 360 600 276Q600 192 562.0 127.0Q524 62 458.5 26.5Q393 -9 314 -9Q236 -9 173.0 26.5Q110 62 74.0 126.5Q38 191 38 276ZM483 276Q483 336 460.0 377.5Q437 419 399.0 440.0Q361 461 317 461Q273 461 235.5 440.0Q198 419 176.0 377.5Q154 336 154 276Q154 187 199.5 138.5Q245 90 314 90Q358 90 396.5 111.0Q435 132 459.0 174.0Q483 216 483 276Z"/>
<path transform="translate(119.50 0) scale(0.01300 -0.01300)" d="M307 560Q407 560 472.5 512.5Q538 465 561 377H438Q423 418 390.0 441.0Q357 464 307 464Q237 464 195.5 414.5Q154 365 154 276Q154 187 195.5 137.0Q237 87 307 87Q406 87 438 174H561Q537 90 471.0 40.5Q405 -9 307 -9Q228 -9 167.0 26.5Q106 62 71.5 126.5Q37 191 37 276Q37 361 71.5 425.5Q106 490 167.0 525.0Q228 560 307 560Z"/>
<path transform="translate(130.30 0) scale(0.01300 -0.01300)" d="M574 551V0H460V65Q433 31 389.5 11.5Q346 -8 297 -8Q232 -8 180.5 19.0Q129 46 99.5 99.0Q70 152 70 227V551H183V244Q183 170 220.0 130.5Q257 91 321 91Q385 91 422.5 130.5Q460 170 460 244V551Z"/>
<path transform="translate(141.73 0) scale(0.01300 -0.01300)" d="M45 169H163Q166 134 196.5 110.5Q227 87 273 87Q321 87 347.5 105.5Q374 124 374 153Q374 184 344.5 199.0Q315 214 251 232Q189 249 150.0 265.0Q111 281 82.5 314.0Q54 347 54 401Q54 445 80.0 481.5Q106 518 154.5 539.0Q203 560 266 560Q360 560 417.5 512.5Q475 465 479 383H365Q362 420 335.0 442.0Q308 464 262 464Q217 464 193.0 447.0Q169 430 169 402Q169 380 185.0 365.0Q201 350 224.0 341.5Q247 333 292 320Q352 304 390.5 287.5Q429 271 457.0 239.0Q485 207 486 154Q486 107 460.0 70.0Q434 33 386.5 12.0Q339 -9 275 -9Q210 -9 158.5 14.5Q107 38 77.0 78.5Q47 119 45 169Z"/></g>
</svg>
