<svg xmlns="http://www.w3.org/2000/svg" width="64" height="64" viewBox="0 0 64 64">
  <defs>
    <linearGradient id="g" x1="0" y1="0" x2="1" y2="1">
      <stop offset="0" stop-color="#6366f1"/>
      <stop offset="1" stop-color="#7c3aed"/>
    </linearGradient>
  </defs>
  <rect width="64" height="64" rx="16" fill="url(#g)"/>
  <g fill="none" stroke="#ffffff" stroke-width="3.4" stroke-linecap="round" stroke-linejoin="round">
    <path d="M32 26.5C26.6 22.6 20.4 22.4 14.7 25.2c-.9.45-1.4 1.35-1.4 2.35V47c0 1.35 1.4 2.25 2.6 1.65 5.3-2.5 10.6-2.1 16.1 1.75"/>
    <path d="M32 26.5c5.4-3.9 11.6-4.1 17.3-1.3.9.45 1.4 1.35 1.4 2.35V47c0 1.35-1.4 2.25-2.6 1.65-5.3-2.5-10.6-2.1-16.1 1.75"/>
    <path d="M32 26.5V50.6"/>
  </g>
  <circle cx="32" cy="15.6" r="4.7" fill="#ffffff"/>
</svg>
